<?xml version="1.0" encoding="UTF-8" standalone="no"?>
<!-- Created with Inkscape (http://www.inkscape.org/) -->

<svg
   width="150mm"
   height="100mm"
   viewBox="60 30 150 150"
   version="1.1"
   id="svg5"
   inkscape:version="1.2.2 (b0a84865, 2022-12-01)"
   sodipodi:docname="arrow.svg"
   xmlns:inkscape="http://www.inkscape.org/namespaces/inkscape"
   xmlns:sodipodi="http://sodipodi.sourceforge.net/DTD/sodipodi-0.dtd"
   xmlns="http://www.w3.org/2000/svg"
   xmlns:svg="http://www.w3.org/2000/svg">
  <sodipodi:namedview
     id="namedview7"
     pagecolor="#ffffff"
     bordercolor="#000000"
     borderopacity="0.25"
     inkscape:showpageshadow="2"
     inkscape:pageopacity="0.0"
     inkscape:pagecheckerboard="0"
     inkscape:deskcolor="#d1d1d1"
     inkscape:document-units="mm"
     showgrid="false"
     inkscape:zoom="1.1668856"
     inkscape:cx="400.21062"
     inkscape:cy="366.35983"
     inkscape:window-width="1512"
     inkscape:window-height="945"
     inkscape:window-x="0"
     inkscape:window-y="37"
     inkscape:window-maximized="0"
     inkscape:current-layer="layer1" />
  <defs
     id="defs2" />
  <g
     inkscape:label="Layer 1"
     inkscape:groupmode="layer"
     id="layer1">
    <circle
       id="path411"
       style="fill:#1a1a1a;stroke:#000000;stroke-width:0.264583"
       cx="98.244698"
       cy="47.641945"
       r="0.03585232" />
    <circle
       id="path574"
       style="fill:#1a1a1a;stroke:#000000;stroke-width:0.264583"
       cx="86.409256"
       cy="41.164928"
       r="0.049397551" />
    <circle
       id="path582"
       style="fill:#1a1a1a;stroke:#000000;stroke-width:0.264583"
       cx="76.396179"
       cy="130.54103"
       r="0.049397551" />
    <path
       style="fill:#1a1a1a;stroke-width:0.264583"
       id="path590"
       d="m 73.159331,39.320422 c -0.05087,0.527693 -0.05985,1.061119 -0.152609,1.583081 -0.415039,2.335528 -1.333045,5.586656 -1.97517,7.69515 -1.95602,6.422802 -4.319006,12.695179 -6.700846,18.96814 -3.675787,9.503997 -7.936314,18.773494 -12.744921,27.755212 -0.621096,1.197105 -1.309949,2.354913 -2.047888,3.482531 0,0 3.376615,1.957964 3.376615,1.957964 v 0 c 0.657863,-1.18754 1.277464,-2.395273 1.857492,-3.62309 4.451191,-9.189149 8.556521,-18.543739 12.327215,-28.033028 2.255057,-5.941851 2.674482,-6.972916 4.831794,-12.953846 1.596345,-4.425714 3.30272,-8.897408 4.444161,-13.47303 0.129006,-0.517139 0.193998,-1.048174 0.290997,-1.572258 0,0 -3.50684,-1.786826 -3.50684,-1.786826 z" />
    <path
       style="fill:#1a1a1a;stroke-width:0.264583"
       id="path592"
       d="m 74.795804,43.593166 c 0.748869,2.155831 0.731153,-0.725367 2.248372,0.974618 2.629815,2.982669 5.56732,5.676074 8.522218,8.330112 2.80865,2.552282 5.747862,4.953741 8.667348,7.376473 1.836018,1.491723 3.769204,2.860458 5.586812,4.374522 0.897136,0.743604 1.757076,1.520423 2.596156,2.327873 0.68232,0.731311 1.41482,1.407293 2.15989,2.073334 0.78573,0.742172 1.6146,1.435242 2.46159,2.105996 0.97739,0.764214 1.93409,1.547537 2.96814,2.234803 2.39697,1.50572 4.86118,2.897687 7.36503,4.216312 1.43633,0.682416 2.85781,1.39722 4.2408,2.182635 -0.9148,-0.522057 -1.82679,-1.049059 -2.74438,-1.566169 -0.35301,-0.19894 0.68993,0.425321 1.04009,0.629227 1.51944,0.884793 3.12229,2.000697 4.82026,2.664346 1.17963,0.399301 2.36254,0.777433 3.56885,1.088702 l 0.31331,0.07683 c -1.19246,-0.459176 -2.21535,-2.449096 -3.44834,-2.477805 -1.19397,-0.308078 -2.36718,-0.686946 -3.51977,-1.125757 -0.1675,-0.07768 -0.85734,-0.126679 -1.02213,-0.209943 -2.33252,-1.178478 4.78825,2.502388 2.45144,1.089926 -0.18258,-0.110366 -1.22246,-0.943488 -1.40676,-1.05098 -1.31604,-0.767588 -1.77802,-0.80702 -3.09427,-1.574261 -1.39379,-0.76499 -2.81617,-1.473552 -4.24429,-2.171846 -1.19082,-0.619225 -4.01125,-2.180071 1.21745,0.80435 0.43283,0.247046 -0.84327,-0.531524 -1.27046,-0.788191 -0.20462,-0.122947 -0.41107,-0.242843 -0.6166,-0.364263 -1.04549,-0.662673 -2.00676,-1.42517 -2.9703,-2.20045 -0.85484,-0.648004 -1.68107,-1.336415 -2.45949,-2.074637 -0.74407,-0.669798 -1.51586,-1.309362 -2.17309,-2.068584 -0.86553,-0.796264 -1.68063,-1.639189 -2.61536,-2.359975 -1.83335,-1.546309 -3.80625,-2.916748 -5.679389,-4.414062 -2.93679,-2.434463 -5.910669,-4.826915 -8.738174,-7.389773 C 86.086094,51.68585 83.174939,49.017114 80.576938,46.056014 79.087871,44.365358 78.228611,42.798897 76.608805,41.23069 L 73.41584,39.620548 Z"
       sodipodi:nodetypes="sccccccccccssccccccssccssccccccccccs" />
    <circle
       id="path596"
       style="fill:#1a1a1a;stroke:#000000;stroke-width:0.264583"
       cx="113.85255"
       cy="123.12392"
       r="0.049397551" />
    <path
       style="fill:#1a1a1a;stroke-width:0.264583"
       id="path600"
       d="m 74.286186,42.56071 c 0.118652,5.028473 0.119393,10.059088 0.12428,15.088714 0.0019,4.814851 -0.04165,9.629542 -0.07,14.444268 -0.04738,4.570143 0.148944,9.136491 0.45416,13.69518 0.262411,2.834854 0.521708,5.674066 1.052009,8.473498 0.312516,1.733709 0.655709,3.460059 1.041506,5.179105 0.509291,2.265085 0.998051,4.532175 1.410052,6.817095 0.412467,2.48175 0.942083,4.94009 1.481527,7.39638 0.04882,0.2582 0.08173,0.51992 0.14646,0.7746 0.391943,1.54221 1.019849,3.03131 1.568846,4.52003 0.880261,2.387 0.730941,1.99277 1.602902,4.46781 1.458595,4.15337 2.739567,8.36649 3.952338,12.59729 0.725707,2.66437 1.499507,5.31816 2.432068,7.91827 0.539962,1.62477 1.211906,3.20037 1.80294,4.80603 0.495972,1.45043 0.990534,2.89759 1.582777,4.31212 0.589283,1.28832 1.068303,2.62302 1.63435,3.92108 0.464656,1.0374 0.971502,2.05278 1.415801,3.09969 0.426527,1.15124 1.056897,2.19722 1.76031,3.19672 0.713343,1.04196 1.494412,2.0281 2.348988,2.95644 0.46925,0.52976 0.94428,1.05385 1.43531,1.56351 0.6068,0.71918 1.23955,1.41371 1.87042,2.11179 0.55116,0.57986 1.00677,1.23915 1.4955,1.8702 0.14202,0.18242 0.28579,0.36348 0.42963,0.54447 0,0 3.67056,1.55942 3.67056,1.55942 v 0 c -0.1563,-0.17908 -0.30878,-0.36144 -0.45885,-0.54578 -0.50696,-0.62782 -0.95942,-1.29915 -1.49928,-1.89873 -0.62667,-0.70174 -1.29703,-1.36117 -1.85588,-2.12172 -0.49612,-0.50977 -0.98318,-1.02796 -1.4551,-1.56033 -0.8503,-0.9293 -1.69968,-1.85618 -2.38549,-2.92132 -0.71087,-0.96555 -1.361767,-1.97995 -1.783669,-3.10932 -0.435994,-1.05635 -0.932294,-2.08034 -1.419836,-3.11282 -0.596159,-1.28714 -1.058124,-2.63179 -1.652548,-3.91986 -0.601797,-1.40777 -1.1107,-2.84684 -1.599377,-4.29729 -0.577895,-1.61776 -1.26728,-3.19383 -1.825165,-4.81947 -0.992729,-2.59252 -1.778301,-5.25941 -2.525164,-7.9315 -1.250694,-4.24367 -2.577521,-8.46503 -4.016497,-12.649 -0.93654,-2.72695 -0.621276,-1.83066 -1.548146,-4.44804 -0.512966,-1.44857 -1.097042,-2.9061 -1.467183,-4.40182 -0.06448,-0.26058 -0.09732,-0.52797 -0.145974,-0.79195 -0.585189,-2.45595 -1.172852,-4.91233 -1.55712,-7.41025 -0.381275,-2.2817 -0.837552,-4.54749 -1.340673,-6.80553 -0.395012,-1.71552 -0.724299,-3.442622 -1.049734,-5.172039 -0.59372,-2.80316 -0.919869,-5.652799 -1.215848,-8.500613 -0.347673,-4.54157 -0.521991,-9.090906 -0.417221,-13.646401 -0.02832,-4.838502 -0.07165,-9.676969 -0.07,-14.515597 0.0048,-4.987404 0.0046,-9.975847 0.124278,-14.962068 0,0 -3.47826,-1.772262 -3.47826,-1.772262 z" />
  </g>
</svg>
